# xmcd CD database file
#
# Track frame offsets:
#	150
#	20476
#	32427
#	43526
#	55159
#	69900
#	83508
#	102328
#	111031
#	129189
#
# Disc length: 1880 seconds
#
# Revision: 1
# Processed by: cddbd v1.5.2PL0 Copyright (c) Steve Scherf et al.
# Submitted via: CDex 1.70beta2
#
DISCID=6e07560a
DTITLE=Larry Sparks - John Deere Tractor
DYEAR=2002
DGENRE=Bluegrass
TTITLE0=John Deere Tractor
TTITLE1=Girl At The Crossroads Bar
TTITLE2=Hot Sauce
TTITLE3=I'd Rather Be Alone
TTITLE4=Great High Mountain
TTITLE5=Love Of The Mountains
TTITLE6=Making Believe
TTITLE7=Nobody's Business
TTITLE8=When I Lay My Burdens Down
TTITLE9=Carter's Blues
EXTD=YEAR: 2002
EXTT0=
EXTT1=
EXTT2=
EXTT3=
EXTT4=
EXTT5=
EXTT6=
EXTT7=
EXTT8=
EXTT9=
PLAYORDER=
